<svg xmlns="http://www.w3.org/2000/svg" aria-hidden="true">
  <symbol id="open" viewBox="0 0 24 24"><path d="M3 7h7l2 2h9v10H3z" fill="none" stroke="currentColor" stroke-width="1.8" stroke-linejoin="round"/><path d="M3 7V5h7l2 2" fill="none" stroke="currentColor" stroke-width="1.8" stroke-linejoin="round"/></symbol>
  <symbol id="new-tab" viewBox="0 0 24 24"><path d="M12 5v14M5 12h14" fill="none" stroke="currentColor" stroke-width="1.8" stroke-linecap="round"/></symbol>
  <symbol id="save" viewBox="0 0 24 24"><path d="M5 3h12l3 3v15H5zM8 3v6h8V3m-8 17v-6h8v6" fill="none" stroke="currentColor" stroke-width="1.8" stroke-linejoin="round"/></symbol>
  <symbol id="check" viewBox="0 0 24 24"><path d="m5 12 4.2 4.2L19 6.5" fill="none" stroke="currentColor" stroke-width="2.2" stroke-linecap="round" stroke-linejoin="round"/></symbol>
  <symbol id="minimize" viewBox="0 0 24 24"><path d="M5 12h14" fill="none" stroke="currentColor" stroke-width="1.8" stroke-linecap="round"/></symbol>
  <symbol id="maximize" viewBox="0 0 24 24"><rect x="5" y="5" width="14" height="14" rx="1" fill="none" stroke="currentColor" stroke-width="1.8"/></symbol>
  <symbol id="restore" viewBox="0 0 24 24"><rect x="8" y="5" width="11" height="11" rx="1" fill="none" stroke="currentColor" stroke-width="1.8"/><path d="M16 19H5V8" fill="none" stroke="currentColor" stroke-width="1.8" stroke-linejoin="round"/></symbol>
  <symbol id="close" viewBox="0 0 24 24"><path d="m6 6 12 12M18 6 6 18" fill="none" stroke="currentColor" stroke-width="1.8" stroke-linecap="round"/></symbol>
  <symbol id="settings" viewBox="0 0 24 24"><path d="M10.3 4.3c.7-2.4 2.7-2.4 3.4 0a1.75 1.75 0 0 0 2.6 1.05c2.1-1.35 3.5.05 2.15 2.15a1.75 1.75 0 0 0 1.05 2.6c2.4.7 2.4 2.7 0 3.4a1.75 1.75 0 0 0-1.05 2.6c1.35 2.1-.05 3.5-2.15 2.15a1.75 1.75 0 0 0-2.6 1.05c-.7 2.4-2.7 2.4-3.4 0a1.75 1.75 0 0 0-2.6-1.05c-2.1 1.35-3.5-.05-2.15-2.15a1.75 1.75 0 0 0-1.05-2.6c-2.4-.7-2.4-2.7 0-3.4a1.75 1.75 0 0 0 1.05-2.6C4.2 5.4 5.6 4 7.7 5.35a1.75 1.75 0 0 0 2.6-1.05Z" fill="none" stroke="currentColor" stroke-width="1.6" stroke-linejoin="round"/><circle cx="12" cy="12" r="3" fill="none" stroke="currentColor" stroke-width="1.8"/></symbol>
  <symbol id="moon" viewBox="0 0 24 24"><path d="M20.4 15.1A8.5 8.5 0 0 1 8.9 3.6 8.5 8.5 0 1 0 20.4 15.1Z" fill="none" stroke="currentColor" stroke-width="1.8" stroke-linejoin="round"/></symbol>
  <symbol id="sun" viewBox="0 0 24 24"><circle cx="12" cy="12" r="3.5" fill="none" stroke="currentColor" stroke-width="1.8"/><path d="M12 2.5v2M12 19.5v2M21.5 12h-2M4.5 12h-2m15.72-6.72-1.42 1.42M7.2 16.8l-1.42 1.42m0-12.44L7.2 7.2m9.88 9.88 1.42 1.42" fill="none" stroke="currentColor" stroke-width="1.8" stroke-linecap="round"/></symbol>
  <symbol id="new-window" viewBox="0 0 24 24"><rect x="3.5" y="4.5" width="13" height="12" rx="1.5" fill="none" stroke="currentColor" stroke-width="1.8"/><path d="M3.5 8h13M18.5 13v7m-3.5-3.5h7" fill="none" stroke="currentColor" stroke-width="1.8" stroke-linecap="round"/></symbol>
  <symbol id="plus" viewBox="0 0 24 24"><path d="M12 5v14M5 12h14" fill="none" stroke="currentColor" stroke-width="2" stroke-linecap="round"/></symbol>
  <symbol id="move" viewBox="0 0 24 24"><path d="M12 2v20M2 12h20M12 2l-3 3m3-3 3 3M12 22l-3-3m3 3 3-3M2 12l3-3m-3 3 3 3M22 12l-3-3m3 3-3 3" fill="none" stroke="currentColor" stroke-width="1.8" stroke-linecap="round" stroke-linejoin="round"/></symbol>
</svg>
